
<svg width="600" height="400" xmlns="http://www.w3.org/2000/svg">
  <style>
    .box { fill: #e1f5fe; stroke: #0288d1; stroke-width: 2; }
    .subgraph { fill: #f3e5f5; stroke: #7b1fa2; stroke-width: 1; stroke-dasharray: 5,5; }
    .arrow { stroke: #333; stroke-width: 2; marker-end: url(#arrowhead); }
    text { font-family: Arial; font-size: 12px; text-anchor: middle; }
    .title { font-size: 16px; font-weight: bold; }
  </style>
  <defs>
    <marker id="arrowhead" markerWidth="10" markerHeight="7" refX="9" refY="3.5" orient="auto">
      <polygon points="0 0, 10 3.5, 0 7" fill="#333"/>
    </marker>
  </defs>
  
  <!-- 表现层 -->
  <rect x="50" y="20" width="500" height="80" class="subgraph"/>
  <text x="300" y="40" class="title">表现层</text>
  <rect x="80" y="50" width="200" height="40" class="box"/>
  <text x="180" y="75">用户前端 (Vue3 + Vite)</text>
  <rect x="320" y="50" width="200" height="40" class="box"/>
  <text x="420" y="75">管理后台 (Vue3 + naive-ui)</text>
  
  <!-- 业务逻辑层 -->
  <rect x="50" y="120" width="500" height="80" class="subgraph"/>
  <text x="300" y="140" class="title">业务逻辑层</text>
  <rect x="80" y="150" width="140" height="40" class="box"/>
  <text x="150" y="175">Controller层</text>
  <rect x="240" y="150" width="140" height="40" class="box"/>
  <text x="310" y="175">Service层</text>
  <rect x="400" y="150" width="140" height="40" class="box"/>
  <text x="470" y="175">Mapper层</text>
  
  <!-- 数据访问层 -->
  <rect x="50" y="220" width="500" height="80" class="subgraph"/>
  <text x="300" y="240" class="title">数据访问层</text>
  <rect x="80" y="250" width="200" height="40" class="box"/>
  <text x="180" y="275">MyBatis-Plus</text>
  <rect x="320" y="250" width="200" height="40" class="box"/>
  <text x="420" y="275">MySQL数据库</text>
  
  <!-- 外部服务 -->
  <rect x="50" y="320" width="500" height="60" class="subgraph"/>
  <text x="300" y="340" class="title">外部服务</text>
  <rect x="80" y="350" width="200" height="30" class="box"/>
  <text x="180" y="370">JWT认证</text>
  <rect x="320" y="350" width="200" height="30" class="box"/>
  <text x="420" y="370">DeepSeek API</text>
  
  <!-- 连接线 -->
  <line x1="180" y1="90" x2="150" y2="150" class="arrow"/>
  <line x1="420" y1="90" x2="150" y2="150" class="arrow"/>
  <line x1="150" y1="190" x2="310" y2="150" class="arrow"/>
  <line x1="310" y1="190" x2="470" y2="150" class="arrow"/>
  <line x1="470" y1="190" x2="180" y2="250" class="arrow"/>
  <line x1="180" y1="290" x2="420" y2="250" class="arrow"/>
  <line x1="310" y1="190" x2="180" y2="350" class="arrow"/>
  <line x1="310" y1="190" x2="420" y2="350" class="arrow"/>
</svg>
  