
<svg width="700" height="500" xmlns="http://www.w3.org/2000/svg">
  <style>
    .entity { fill: #e3f2fd; stroke: #1565c0; stroke-width: 2; }
    .relation { fill: #fce4ec; stroke: #c62828; stroke-width: 1.5; }
    .line { stroke: #333; stroke-width: 1.5; }
    text { font-family: Arial; font-size: 10px; }
    .title { font-size: 12px; font-weight: bold; }
  </style>
  
  <!-- 实体 -->
  <rect x="50" y="50" width="120" height="60" class="entity"/>
  <text x="110" y="70" class="title">CATEGORY</text>
  <text x="110" y="85">id, parent_id</text>
  <text x="110" y="100">title, icon</text>
  
  <rect x="250" y="50" width="120" height="60" class="entity"/>
  <text x="310" y="70" class="title">SITE</text>
  <text x="310" y="85">id, category_id</text>
  <text x="310" y="100">title, url</text>
  
  <rect x="450" y="50" width="120" height="60" class="entity"/>
  <text x="510" y="70" class="title">TAG</text>
  <text x="510" y="85">id, tag_name</text>
  <text x="510" y="100">create_time</text>
  
  <rect x="50" y="150" width="120" height="60" class="entity"/>
  <text x="110" y="170" class="title">SYS_USER</text>
  <text x="110" y="185">id, username</text>
  <text x="110" y="200">password, role</text>
  
  <rect x="250" y="150" width="120" height="60" class="entity"/>
  <text x="310" y="170" class="title">SITE_COMMENT</text>
  <text x="310" y="185">id, site_id</text>
  <text x="310" y="200">user_id, content</text>
  
  <rect x="450" y="150" width="120" height="60" class="entity"/>
  <text x="510" y="170" class="title">SITE_LIKE</text>
  <text x="510" y="185">id, site_id</text>
  <text x="510" y="200">user_id, ip</text>
  
  <rect x="50" y="250" width="120" height="60" class="entity"/>
  <text x="110" y="270" class="title">SITE_SECTION</text>
  <text x="110" y="285">id, site_id</text>
  <text x="110" y="300">title, sort</text>
  
  <rect x="250" y="250" width="120" height="60" class="entity"/>
  <text x="310" y="270" class="title">SITE_SECTION_CONTENT</text>
  <text x="310" y="285">id, section_id</text>
  <text x="310" y="300">content_type</text>
  
  <rect x="450" y="250" width="120" height="60" class="entity"/>
  <text x="510" y="270" class="title">SYS_NOTICE</text>
  <text x="510" y="285">id, receiver_id</text>
  <text x="510" y="300">title, content</text>
  
  <rect x="250" y="350" width="120" height="60" class="entity"/>
  <text x="310" y="370" class="title">SITE_CLICK_LOG</text>
  <text x="310" y="385">id, site_id</text>
  <text x="310" y="400">user_id, ip</text>
  
  <rect x="450" y="350" width="120" height="60" class="entity"/>
  <text x="510" y="370" class="title">SITE_TAG_RELATION</text>
  <text x="510" y="385">id, site_id</text>
  <text x="510" y="400">tag_id</text>
  
  <!-- 关系线 -->
  <line x1="170" y1="80" x2="250" y2="80" class="line"/>
  <line x1="370" y1="80" x2="450" y2="80" class="line"/>
  <line x1="110" y1="110" x2="110" y2="150" class="line"/>
  <line x1="310" y1="110" x2="310" y2="150" class="line"/>
  <line x1="510" y1="110" x2="510" y2="150" class="line"/>
  <line x1="110" y1="210" x2="110" y2="250" class="line"/>
  <line x1="310" y1="210" x2="310" y2="250" class="line"/>
  <line x1="510" y1="210" x2="510" y2="250" class="line"/>
  <line x1="170" y1="280" x2="250" y2="280" class="line"/>
  <line x1="370" y1="280" x2="450" y2="280" class="line"/>
  <line x1="310" y1="310" x2="310" y2="350" class="line"/>
  <line x1="510" y1="310" x2="510" y2="350" class="line"/>
</svg>
  