
<svg width="600" height="400" xmlns="http://www.w3.org/2000/svg">
  <style>
    .box { fill: #e8f5e9; stroke: #388e3c; stroke-width: 2; }
    .subbox { fill: #fff3e0; stroke: #f57c00; stroke-width: 1; }
    .arrow { stroke: #333; stroke-width: 1.5; marker-end: url(#arrowhead); }
    text { font-family: Arial; font-size: 11px; text-anchor: middle; }
    .title { font-size: 14px; font-weight: bold; }
  </style>
  <defs>
    <marker id="arrowhead" markerWidth="8" markerHeight="6" refX="7" refY="3" orient="auto">
      <polygon points="0 0, 8 3, 0 6" fill="#333"/>
    </marker>
  </defs>
  
  <!-- 主系统 -->
  <rect x="200" y="20" width="200" height="40" class="box"/>
  <text x="300" y="45" class="title">WebStack-WL2</text>
  
  <!-- 用户前端 -->
  <rect x="50" y="100" width="200" height="30" class="box"/>
  <text x="150" y="120">用户前端</text>
  
  <!-- 管理后台 -->
  <rect x="350" y="100" width="200" height="30" class="box"/>
  <text x="450" y="120">管理后台</text>
  
  <!-- 用户前端子模块 -->
  <rect x="20" y="160" width="120" height="25" class="subbox"/>
  <text x="80" y="177">首页展示</text>
  
  <rect x="150" y="160" width="120" height="25" class="subbox"/>
  <text x="210" y="177">分类导航</text>
  
  <rect x="20" y="195" width="120" height="25" class="subbox"/>
  <text x="80" y="212">网站详情</text>
  
  <rect x="150" y="195" width="120" height="25" class="subbox"/>
  <text x="210" y="212">搜索功能</text>
  
  <rect x="85" y="230" width="120" height="25" class="subbox"/>
  <text x="145" y="247">评论点赞</text>
  
  <!-- 管理后台子模块 -->
  <rect x="330" y="160" width="120" height="25" class="subbox"/>
  <text x="390" y="177">登录认证</text>
  
  <rect x="460" y="160" width="120" height="25" class="subbox"/>
  <text x="520" y="177">网站管理</text>
  
  <rect x="330" y="195" width="120" height="25" class="subbox"/>
  <text x="390" y="212">分类管理</text>
  
  <rect x="460" y="195" width="120" height="25" class="subbox"/>
  <text x="520" y="212">评论管理</text>
  
  <rect x="330" y="230" width="120" height="25" class="subbox"/>
  <text x="390" y="247">用户管理</text>
  
  <rect x="460" y="230" width="120" height="25" class="subbox"/>
  <text x="520" y="247">数据统计</text>
  
  <rect x="330" y="265" width="120" height="25" class="subbox"/>
  <text x="390" y="282">批量导入</text>
  
  <rect x="460" y="265" width="120" height="25" class="subbox"/>
  <text x="520" y="282">消息通知</text>
  
  <!-- 连接线 -->
  <line x1="250" y1="60" x2="150" y2="100" class="arrow"/>
  <line x1="350" y1="60" x2="450" y2="100" class="arrow"/>
  <line x1="150" y1="130" x2="80" y2="160" class="arrow"/>
  <line x1="150" y1="130" x2="210" y2="160" class="arrow"/>
  <line x1="150" y1="130" x2="80" y2="195" class="arrow"/>
  <line x1="150" y1="130" x2="210" y2="195" class="arrow"/>
  <line x1="150" y1="130" x2="145" y2="230" class="arrow"/>
  <line x1="450" y1="130" x2="390" y2="160" class="arrow"/>
  <line x1="450" y1="130" x2="520" y2="160" class="arrow"/>
  <line x1="450" y1="130" x2="390" y2="195" class="arrow"/>
  <line x1="450" y1="130" x2="520" y2="195" class="arrow"/>
  <line x1="450" y1="130" x2="390" y2="230" class="arrow"/>
  <line x1="450" y1="130" x2="520" y2="230" class="arrow"/>
  <line x1="450" y1="130" x2="390" y2="265" class="arrow"/>
  <line x1="450" y1="130" x2="520" y2="265" class="arrow"/>
</svg>
  