
<svg width="500" height="400" xmlns="http://www.w3.org/2000/svg">
  <style>
    .class { fill: #e8eaf6; stroke: #283593; stroke-width: 2; }
    .attr { fill: #f3e5f5; stroke: #7b1fa2; stroke-width: 1; }
    .line { stroke: #333; stroke-width: 1.5; }
    text { font-family: Arial; font-size: 11px; }
    .title { font-size: 13px; font-weight: bold; }
  </style>
  
  <!-- SysUser类 -->
  <rect x="50" y="50" width="200" height="250" class="class"/>
  <text x="150" y="70" class="title">SysUser</text>
  <line x1="50" y1="80" x2="250" y2="80" class="line"/>
  
  <rect x="60" y="90" width="180" height="20" class="attr"/>
  <text x="150" y="105">+Long id</text>
  
  <rect x="60" y="115" width="180" height="20" class="attr"/>
  <text x="150" y="130">+String username</text>
  
  <rect x="60" y="140" width="180" height="20" class="attr"/>
  <text x="150" y="155">+String password</text>
  
  <rect x="60" y="165" width="180" height="20" class="attr"/>
  <text x="150" y="180">+String name</text>
  
  <rect x="60" y="190" width="180" height="20" class="attr"/>
  <text x="150" y="205">+String role</text>
  
  <rect x="60" y="215" width="180" height="20" class="attr"/>
  <text x="150" y="230">+Integer status</text>
  
  <rect x="60" y="240" width="180" height="20" class="attr"/>
  <text x="150" y="255">+Date lastLoginTime</text>
  
  <rect x="60" y="265" width="180" height="20" class="attr"/>
  <text x="150" y="280">+String lastLoginIp</text>
  
  <!-- Site类 -->
  <rect x="300" y="50" width="200" height="250" class="class"/>
  <text x="400" y="70" class="title">Site</text>
  <line x1="300" y1="80" x2="500" y2="80" class="line"/>
  
  <rect x="310" y="90" width="180" height="20" class="attr"/>
  <text x="400" y="105">+Integer id</text>
  
  <rect x="310" y="115" width="180" height="20" class="attr"/>
  <text x="400" y="130">+Integer categoryId</text>
  
  <rect x="310" y="140" width="180" height="20" class="attr"/>
  <text x="400" y="155">+String title</text>
  
  <rect x="310" y="165" width="180" height="20" class="attr"/>
  <text x="400" y="180">+String url</text>
  
  <rect x="310" y="190" width="180" height="20" class="attr"/>
  <text x="400" y="205">+String description</text>
  
  <rect x="310" y="215" width="180" height="20" class="attr"/>
  <text x="400" y="230">+Integer likeCount</text>
  
  <rect x="310" y="240" width="180" height="20" class="attr"/>
  <text x="400" y="255">+Integer commentCount</text>
  
  <rect x="310" y="265" width="180" height="20" class="attr"/>
  <text x="400" y="280">+Integer clickCount</text>
  
  <!-- 关系 -->
  <line x1="250" y1="150" x2="300" y2="150" class="line"/>
  <text x="275" y="145">1</text>
  <text x="285" y="145">*</text>
  
  <!-- 标注 -->
  <text x="150" y="320">用户实体包含：ID、用户名、密码、角色、状态等属性</text>
  <text x="400" y="320">网站实体包含：ID、分类、标题、URL、描述等属性</text>
</svg>
  